<svg aria-hidden="true" style="position: absolute; width: 0; height: 0; overflow: hidden;" version="1.1" xmlns="http://www.w3.org/2000/svg" xmlns:xlink="http://www.w3.org/1999/xlink">
<defs>
<symbol id="icon-facebook" viewBox="0 0 32 32">
<path fill="none" stroke="#2f2f37" style="stroke: var(--color1, #2f2f37)" stroke-linejoin="miter" stroke-linecap="butt" stroke-miterlimit="4" stroke-width="1" d="M8 0.5h16c4.142 0 7.5 3.358 7.5 7.5v16c0 4.142-3.358 7.5-7.5 7.5h-16c-4.142 0-7.5-3.358-7.5-7.5v-16c0-4.142 3.358-7.5 7.5-7.5z"></path>
<path d="M18.665 10.657h1.46v-2.544c-0.619-0.072-1.336-0.113-2.063-0.113-0.023 0-0.046 0-0.069 0h0.004c-2.106 0-3.548 1.325-3.548 3.76v2.24h-2.324v2.844h2.324v7.156h2.849v-7.155h2.23l0.354-2.845h-2.585v-1.96c0.001-0.822 0.222-1.384 1.368-1.384z"></path>
</symbol>
<symbol id="icon-github" viewBox="0 0 32 32">
<path fill="none" stroke="#2f2f37" style="stroke: var(--color1, #2f2f37)" stroke-linejoin="miter" stroke-linecap="butt" stroke-miterlimit="4" stroke-width="1" d="M8 0.5h16c4.142 0 7.5 3.358 7.5 7.5v16c0 4.142-3.358 7.5-7.5 7.5h-16c-4.142 0-7.5-3.358-7.5-7.5v-16c0-4.142 3.358-7.5 7.5-7.5z"></path>
<path d="M16 8c-4.42 0-8 3.58-8 8 0 3.54 2.29 6.53 5.47 7.59 0.4 0.070 0.55-0.17 0.55-0.38 0-0.19-0.010-0.82-0.010-1.49-2.010 0.37-2.53-0.49-2.69-0.94-0.090-0.23-0.48-0.94-0.82-1.13-0.28-0.15-0.68-0.52-0.010-0.53 0.63-0.010 1.080 0.58 1.23 0.82 0.72 1.21 1.87 0.87 2.33 0.66 0.070-0.52 0.28-0.87 0.51-1.070-1.78-0.2-3.64-0.89-3.64-3.95 0-0.87 0.31-1.59 0.82-2.15-0.080-0.2-0.36-1.020 0.080-2.12 0 0 0.67-0.21 2.2 0.82 0.64-0.18 1.32-0.27 2-0.27s1.36 0.090 2 0.27c1.53-1.040 2.2-0.82 2.2-0.82 0.44 1.1 0.16 1.92 0.080 2.12 0.51 0.56 0.82 1.27 0.82 2.15 0 3.070-1.87 3.75-3.65 3.95 0.29 0.25 0.54 0.73 0.54 1.48 0 1.070-0.010 1.93-0.010 2.2 0 0.21 0.15 0.46 0.55 0.38 3.195-1.102 5.449-4.082 5.45-7.59v-0c0-4.42-3.58-8-8-8z"></path>
</symbol>
<symbol id="icon-instagram" viewBox="0 0 32 32">
<path fill="none" stroke="#2f2f37" style="stroke: var(--color1, #2f2f37)" stroke-linejoin="miter" stroke-linecap="butt" stroke-miterlimit="4" stroke-width="1" d="M8 0.5h16c4.142 0 7.5 3.358 7.5 7.5v16c0 4.142-3.358 7.5-7.5 7.5h-16c-4.142 0-7.5-3.358-7.5-7.5v-16c0-4.142 3.358-7.5 7.5-7.5z"></path>
<path d="M16.685 9.334c0.487-0.002 0.973 0.003 1.46 0.015l0.13 0.004 0.474 0.020c0.71 0.034 1.193 0.146 1.618 0.31 0.44 0.17 0.81 0.399 1.181 0.77 0.339 0.333 0.601 0.736 0.769 1.18 0.164 0.425 0.276 0.91 0.31 1.619l0.020 0.475 0.004 0.129c0.012 0.486 0.017 0.972 0.015 1.459v1.37c0.002 0.487-0.003 0.973-0.015 1.46l-0.004 0.129c-0.005 0.15-0.012 0.297-0.020 0.475-0.033 0.709-0.146 1.193-0.31 1.618-0.167 0.445-0.43 0.848-0.769 1.181-0.325 0.33-0.719 0.592-1.159 0.761l-0.022 0.008c-0.425 0.164-0.909 0.276-1.618 0.31l-0.475 0.020-0.13 0.004c-0.486 0.012-0.972 0.017-1.459 0.015h-1.37c-0.486 0.002-0.973-0.003-1.459-0.015l-0.13-0.004c-0.237-0.008-0.402-0.015-0.567-0.024l0.093 0.004c-0.71-0.033-1.193-0.146-1.619-0.31-0.462-0.177-0.856-0.438-1.179-0.768l-0.001-0.001c-0.331-0.325-0.593-0.719-0.762-1.159l-0.008-0.022c-0.164-0.425-0.276-0.909-0.31-1.618-0.004-0.051-0.011-0.216-0.017-0.382l-0.003-0.093-0.003-0.13c-0.011-0.4-0.017-0.871-0.017-1.344 0-0.041 0-0.081 0-0.122v0.006-1.37c-0.001-0.487 0.003-0.973 0.015-1.459l0.005-0.13c0.005-0.149 0.012-0.297 0.020-0.474 0.033-0.71 0.145-1.193 0.31-1.619 0.167-0.445 0.43-0.847 0.77-1.18 0.333-0.34 0.736-0.602 1.18-0.77 0.426-0.164 0.91-0.276 1.62-0.31l0.474-0.020 0.13-0.003c0.485-0.012 0.972-0.018 1.458-0.017l1.37 0.001zM16 12.667c-0.011-0-0.025-0-0.038-0-1.842 0-3.335 1.493-3.335 3.335 0 1.391 0.851 2.583 2.061 3.083l0.022 0.008c0.41 0.165 0.848 0.247 1.29 0.24 1.841 0 3.333-1.492 3.333-3.333s-1.492-3.333-3.333-3.333v0zM16 14.001c0.010-0 0.022-0 0.034-0 1.105 0 2.001 0.896 2.001 2.001 0 0.558-0.228 1.062-0.596 1.425l-0 0c-0.361 0.354-0.856 0.573-1.402 0.573-0.012 0-0.025-0-0.037-0l0.002 0c-1.105 0-2-0.895-2-2s0.895-2 2-2v0zM19.5 11.667c-0.46 0-0.833 0.373-0.833 0.833s0.373 0.833 0.833 0.833v0c0.46 0 0.834-0.373 0.834-0.834s-0.373-0.834-0.834-0.834v0 0.001z"></path>
</symbol>
<symbol id="icon-tiktok" viewBox="0 0 32 32">
<path fill="none" stroke="#2f2f37" style="stroke: var(--color1, #2f2f37)" stroke-linejoin="miter" stroke-linecap="butt" stroke-miterlimit="4" stroke-width="1" d="M8 0.5h16c4.142 0 7.5 3.358 7.5 7.5v16c0 4.142-3.358 7.5-7.5 7.5h-16c-4.142 0-7.5-3.358-7.5-7.5v-16c0-4.142 3.358-7.5 7.5-7.5z"></path>
<path d="M18.667 13.497v4.836c0 0 0 0 0 0 0 2.394-1.94 4.334-4.334 4.334s-4.334-1.94-4.334-4.334c0-2.394 1.94-4.334 4.334-4.334 0.355 0 0.7 0.043 1.030 0.123l-0.030-0.006v2.109c-0.292-0.142-0.636-0.225-0.999-0.225-1.288 0-2.333 1.045-2.333 2.333s1.045 2.333 2.333 2.333c1.288 0 2.333-1.045 2.333-2.333 0-0 0-0 0-0v0-9h2c0 1.841 1.492 3.333 3.333 3.334h0v2c-0.002 0-0.005 0-0.008 0-1.263 0-2.424-0.441-3.335-1.178l0.010 0.008z"></path>
</symbol>
<symbol id="icon-twitter" viewBox="0 0 32 32">
<path fill="none" stroke="#2f2f37" style="stroke: var(--color1, #2f2f37)" stroke-linejoin="miter" stroke-linecap="butt" stroke-miterlimit="4" stroke-width="1" d="M8 0.5h16c4.142 0 7.5 3.358 7.5 7.5v16c0 4.142-3.358 7.5-7.5 7.5h-16c-4.142 0-7.5-3.358-7.5-7.5v-16c0-4.142 3.358-7.5 7.5-7.5z"></path>
<path d="M13.026 23c6.038 0 9.341-5.003 9.341-9.334 0-0.14 0-0.282-0.006-0.422 0.645-0.471 1.189-1.035 1.624-1.678l0.015-0.024c-0.55 0.249-1.188 0.432-1.857 0.515l-0.032 0.003c0.68-0.411 1.191-1.043 1.44-1.794l0.007-0.023c-0.601 0.362-1.3 0.637-2.045 0.786l-0.042 0.007c-0.601-0.64-1.453-1.039-2.397-1.039-1.814 0-3.285 1.471-3.285 3.285 0 0.265 0.031 0.523 0.091 0.771l-0.005-0.022c-2.735-0.141-5.14-1.44-6.754-3.412l-0.013-0.017c-0.278 0.473-0.443 1.041-0.443 1.648 0 1.135 0.575 2.135 1.449 2.727l0.012 0.007c-0.548-0.019-1.057-0.168-1.503-0.417l0.017 0.009v0.045c0.002 1.582 1.121 2.902 2.611 3.214l0.021 0.004c-0.255 0.073-0.548 0.115-0.851 0.115-0.005 0-0.010 0-0.015-0h0.001c-0.206 0-0.412-0.018-0.614-0.057 0.432 1.314 1.637 2.251 3.064 2.277l0.003 0c-1.109 0.877-2.527 1.407-4.069 1.407-0.004 0-0.008 0-0.011 0h0.001c-0.008 0-0.018 0-0.027 0-0.265 0-0.527-0.016-0.784-0.048l0.031 0.003c1.421 0.919 3.159 1.465 5.023 1.465 0.001 0 0.002 0 0.003 0h-0z"></path>
</symbol>
<symbol id="icon-youtube" viewBox="0 0 32 32">
<path fill="none" stroke="#2f2f37" style="stroke: var(--color1, #2f2f37)" stroke-linejoin="miter" stroke-linecap="butt" stroke-miterlimit="4" stroke-width="1" d="M8 0.5h16c4.142 0 7.5 3.358 7.5 7.5v16c0 4.142-3.358 7.5-7.5 7.5h-16c-4.142 0-7.5-3.358-7.5-7.5v-16c0-4.142 3.358-7.5 7.5-7.5z"></path>
<path d="M16.163 10.667c0.356 0.002 1.246 0.010 2.193 0.048l0.336 0.015c0.953 0.045 1.905 0.122 2.377 0.253 0.63 0.178 1.125 0.694 1.292 1.348 0.267 1.040 0.3 3.068 0.304 3.56l0.001 0.101v0.116c-0.005 0.491-0.038 2.52-0.305 3.56-0.165 0.649-0.653 1.156-1.279 1.344l-0.013 0.003c-0.472 0.132-1.424 0.209-2.377 0.254l-0.336 0.015c-0.947 0.037-1.837 0.047-2.193 0.048h-0.327c-0.753-0.004-3.904-0.038-4.907-0.317-0.639-0.192-1.127-0.698-1.289-1.335l-0.003-0.013c-0.266-1.040-0.3-3.068-0.304-3.559v-0.217c0.004-0.492 0.038-2.52 0.304-3.56 0.165-0.65 0.653-1.156 1.28-1.344l0.013-0.003c1.002-0.28 4.153-0.313 4.907-0.317h0.326zM14.666 13.667v4.666l4-2.333-4-2.333z"></path>
</symbol>
</defs>
</svg>
